<svg id="IconAuth" xmlns="http://www.w3.org/2000/svg" width="21.395" height="24" viewBox="0 0 21.395 24">
  <path id="Контур_16" data-name="Контур 16" d="M21.57,11.76H20.291V8.287a4.329,4.329,0,0,0-8.658,0V11.76H10.356c-2.807,0-5.091,1.961-5.091,4.372v7.456c0,2.41,2.284,4.371,5.091,4.371H21.57c2.806,0,5.09-1.961,5.09-4.371V16.131C26.66,13.721,24.376,11.76,21.57,11.76ZM13.627,8.287a2.336,2.336,0,0,1,4.672,0V11.76H13.627Zm11.04,15.3c0,1.311-1.389,2.378-3.1,2.378H10.356c-1.709,0-3.1-1.066-3.1-2.378V16.131c0-1.311,1.389-2.379,3.1-2.379H21.57c1.708,0,3.1,1.067,3.1,2.379Z" transform="translate(-5.265 -3.958)" fill="#161615"/>
  <path id="Контур_17" data-name="Контур 17" d="M16,15.559a3.387,3.387,0,0,0-1,6.626v1.086a1,1,0,0,0,2,0V22.185a3.387,3.387,0,0,0-1-6.626Zm0,4.794a1.4,1.4,0,1,1,1.4-1.4A1.4,1.4,0,0,1,16,20.353Z" transform="translate(-5.303 -4.021)" fill="#161615"/>
</svg>
