<svg xmlns="http://www.w3.org/2000/svg" width="200" height="29.179" viewBox="0 0 200 29.179">
  <g id="Logo" transform="translate(-138.128 -210.582)">
    <path id="Контур_1" data-name="Контур 1" d="M505.521,221.474V210.582l-8.083.013-10.948,4.655v-4.582l-14.739-.087v29.136l22.256-8.148,11.515,8.148Z" transform="translate(-240.677)" fill="#ff8b00"/>
    <g id="Сгруппировать_1" data-name="Сгруппировать 1" transform="translate(304.484 210.582)">
      <path id="Контур_2" data-name="Контур 2" d="M745.461,227.051,768.9,210.582H735.253Z" transform="translate(-735.253 -210.582)" fill="#99bd2b"/>
      <path id="Контур_3" data-name="Контур 3" d="M758.69,256.05l-23.437,16.469H768.9Z" transform="translate(-735.253 -243.383)" fill="#99bd2b"/>
    </g>
    <path id="Контур_4" data-name="Контур 4" d="M614.252,239.718l33.776-12.391V210.582H614.252Z" transform="translate(-343.479)" fill="#99bd2b"/>
    <path id="Контур_5" data-name="Контур 5" d="M276.165,225.151l-8.411-14.568-8.411,14.568,8.411,14.568Z" transform="translate(-87.446 -0.001)" fill="#ff8b00"/>
    <path id="Контур_6" data-name="Контур 6" d="M138.128,210.582l5.607,9.712h8.538l11.214,19.424L171.9,225.15l-8.411-14.568Z" fill="#ff8b00"/>
    <path id="Контур_7" data-name="Контур 7" d="M295.391,210.582h0Z" transform="translate(-113.45)" fill="#ff4e00"/>
    <path id="Контур_8" data-name="Контур 8" d="M245.974,210.582H229.153l8.411,14.568,8.411-14.568Z" transform="translate(-65.666)" fill="#f4520b"/>
    <path id="Контур_9" data-name="Контур 9" d="M344.911,210.737H328.089l-8.411,14.568,8.411,14.568Z" transform="translate(-130.972 -0.112)" fill="#ff8b00"/>
    <path id="Контур_10" data-name="Контур 10" d="M424.418,233.314V210.737H410.249v29.05Z" transform="translate(-196.31 -0.112)" fill="#ff8b00"/>
  </g>
</svg>
